<?xml version="1.0" encoding="UTF-8" standalone="no"?>
<svg
	xmlns:dc="http://purl.org/dc/elements/1.1/"
	xmlns:cc="http://creativecommons.org/ns#"
	xmlns:rdf="http://www.w3.org/1999/02/22-rdf-syntax-ns#"
	xmlns:svg="http://www.w3.org/2000/svg"
	xmlns="http://www.w3.org/2000/svg"
	width="24"
	height="24"
	version="1.1">
<path d="M2 12v3.45c0 2.849.698 4.005 1.606 4.944.94.909 2.098 1.608 4.946 1.608h6.896c2.848 0 4.006-.7 4.946-1.608C21.302 19.455 22 18.3 22 15.45V8.552c0-2.849-.698-4.006-1.606-4.945C19.454 2.7 18.296 2 15.448 2H8.552c-2.848 0-4.006.699-4.946 1.607C2.698 4.547 2 5.703 2 8.552Z" fill="none" stroke="currentColor" stroke-linecap="round" stroke-linejoin="round" stroke-width="2"></path><line fill="none" stroke="currentColor" stroke-linecap="round" stroke-linejoin="round" stroke-width="2" x1="6.545" x2="17.455" y1="12.001" y2="12.001"></line><line fill="none" stroke="currentColor" stroke-linecap="round" stroke-linejoin="round" stroke-width="2" x1="12.003" x2="12.003" y1="6.545" y2="17.455"></line>
</svg>