<?xml version="1.0" encoding="UTF-8" standalone="no"?>
<svg
	xmlns:dc="http://purl.org/dc/elements/1.1/"
	xmlns:cc="http://creativecommons.org/ns#"
	xmlns:rdf="http://www.w3.org/1999/02/22-rdf-syntax-ns#"
	xmlns:svg="http://www.w3.org/2000/svg"
	xmlns="http://www.w3.org/2000/svg"
	width="24"
	height="24"
	version="1.1">
<path class="st0" style="fill:#F9263F;" d="M16.8,1.9C15,1.8,13.2,2.6,12,4c-1.2-1.4-3-2.2-4.8-2.1C3.4,2.1,0.4,5.3,0.5,9.1c0,3.6,2.5,5.8,5,8
	c0.3,0.2,0.6,0.5,0.9,0.7l1,0.9c1.1,1.1,2.3,2.1,3.5,3c0.7,0.4,1.5,0.4,2.2,0c1.3-1,2.5-2,3.6-3.1l0.9-0.8c0.3-0.3,0.6-0.5,0.9-0.8
	c2.3-2,5-4.3,5-7.9C23.6,5.3,20.6,2.1,16.8,1.9z"/>
</svg>